<?xml version="1.0" encoding="UTF-8"?>
<svg id="SVGDoc" width="16" height="17" xmlns="http://www.w3.org/2000/svg" version="1.1" xmlns:xlink="http://www.w3.org/1999/xlink" xmlns:avocode="https://avocode.com/" viewBox="0 0 16 17"><defs><clipPath id="ClipPath1066"><path d="M7.75501,7.5c2.07907,0 3.74499,-1.67787 3.74499,-3.75c0,-2.07213 -1.66592,-3.75 -3.74499,-3.75c-2.07581,0 -3.75501,1.67461 -3.75501,3.75c0,2.07539 1.6792,3.75 3.75501,3.75zM1.00763,11.1688c-0.57168,0.5273 -1.00763,1.2231 -1.00763,2.0812v0.5c0,1.5188 1.23122,2.75 2.75,2.75h10c1.5188,0 2.75,-1.2312 2.75,-2.75v-0.5c0,-0.8581 -0.4359,-1.5539 -1.0076,-2.0812c-0.5666,-0.5225 -1.3149,-0.9287 -2.09,-1.23887c-1.549,-0.61986 -3.39373,-0.92993 -4.6524,-0.92993c-1.25867,0 -3.10339,0.31007 -4.6524,0.92993c-0.77511,0.31017 -1.52341,0.71637 -2.08997,1.23887z" fill="#ffffff"></path></clipPath></defs><desc>Generated with Avocode.</desc><g><g opacity="0.4"><title>Group 607</title><g opacity="0.4"><title>boundaries</title></g><g opacity="0.4"><title>Union (Stroke)</title><path d="M7.75501,7.5c2.07907,0 3.74499,-1.67787 3.74499,-3.75c0,-2.07213 -1.66592,-3.75 -3.74499,-3.75c-2.07581,0 -3.75501,1.67461 -3.75501,3.75c0,2.07539 1.6792,3.75 3.75501,3.75zM1.00763,11.1688c-0.57168,0.5273 -1.00763,1.2231 -1.00763,2.0812v0.5c0,1.5188 1.23122,2.75 2.75,2.75h10c1.5188,0 2.75,-1.2312 2.75,-2.75v-0.5c0,-0.8581 -0.4359,-1.5539 -1.0076,-2.0812c-0.5666,-0.5225 -1.3149,-0.9287 -2.09,-1.23887c-1.549,-0.61986 -3.39373,-0.92993 -4.6524,-0.92993c-1.25867,0 -3.10339,0.31007 -4.6524,0.92993c-0.77511,0.31017 -1.52341,0.71637 -2.08997,1.23887z" fill-opacity="0" fill="#ffffff" stroke-linejoin="miter" stroke-linecap="butt" stroke-opacity="1" stroke="#2d2e46" stroke-miterlimit="20" stroke-width="2" clip-path="url(&quot;#ClipPath1066&quot;)"></path></g></g></g></svg>